<?xml version="1.0" encoding="utf-8"?>
<!-- Generator: Adobe Illustrator 16.0.0, SVG Export Plug-In . SVG Version: 6.00 Build 0)  -->
<!DOCTYPE svg PUBLIC "-//W3C//DTD SVG 1.1//EN" "http://www.w3.org/Graphics/SVG/1.1/DTD/svg11.dtd">
<svg version="1.1" id="Ebene_1" xmlns="http://www.w3.org/2000/svg" xmlns:xlink="http://www.w3.org/1999/xlink" x="0px" y="0px"
	 width="285.001px" height="48.334px" viewBox="0 0 285.001 48.334" enable-background="new 0 0 285.001 48.334"
	 xml:space="preserve">
<rect x="-3.31" y="-2.77" fill="#222223" stroke="#222223" stroke-miterlimit="10" width="291.333" height="56"/>
<path fill="none" stroke="#FFFFFF" stroke-width="1.5" stroke-miterlimit="10" d="M50.474,7.148v34.65H6.417V7.148H50.474z
	 M16.302,25.825c0.509,9.163,8.351,16.181,17.514,15.671c9.164-0.508,16.183-8.35,15.674-17.514
	c-0.51-9.164-8.351-16.182-17.515-15.673c-4.646,0.259-8.737,2.399-11.579,5.642 M18.492,14.718 M14.702,26.018 M12.367,18.088
	l28.072,11.924 M40.439,30.012L20.855,13.854l-3.972-3.275 M15.021,42.805 M10.082,28.402 M10.042,30.615l6.476-10.729
	 M6.417,27.787L18.836,7.216 M6.417,18.834l7.055-11.686 M20.831,41.727L9.936,29.988 M27.518,24.666
	c-0.135,2.268,1.444,4.329,3.735,4.741c1.561,0.281,3.079-0.271,4.099-1.337 M36.375,26.367c0.067-0.203,0.121-0.414,0.16-0.631
	c0.445-2.471-1.198-4.837-3.671-5.281c-1.254-0.227-2.479,0.086-3.441,0.771"/>
<g>
	<path fill="#FFFFFF" d="M115.4,32.11h-3.117v7.693h-1.16V32.11h-3.117v-1.031h7.395V32.11z"/>
	<path fill="#FFFFFF" d="M121.302,36.534c0,1.066-0.273,1.908-0.82,2.525s-1.279,0.926-2.197,0.926
		c-0.926,0-1.661-0.309-2.206-0.926s-0.817-1.459-0.817-2.525s0.272-1.909,0.817-2.528s1.28-0.929,2.206-0.929
		c0.918,0,1.65,0.31,2.197,0.929S121.302,35.468,121.302,36.534z M120.165,36.534c0-0.848-0.166-1.478-0.498-1.89
		s-0.793-0.618-1.383-0.618c-0.598,0-1.062,0.206-1.392,0.618s-0.495,1.042-0.495,1.89c0,0.82,0.166,1.442,0.498,1.866
		s0.795,0.636,1.389,0.636c0.586,0,1.046-0.21,1.38-0.63S120.165,37.362,120.165,36.534z"/>
	<path fill="#FFFFFF" d="M129.295,36.481c0,0.547-0.077,1.039-0.231,1.477s-0.362,0.805-0.624,1.102
		c-0.277,0.309-0.582,0.54-0.914,0.694s-0.697,0.231-1.096,0.231c-0.371,0-0.695-0.044-0.973-0.132s-0.551-0.206-0.82-0.354
		l-0.07,0.305h-1.031v-9.117h1.102v3.258c0.309-0.254,0.637-0.462,0.984-0.624s0.738-0.243,1.172-0.243
		c0.773,0,1.384,0.297,1.831,0.891S129.295,35.399,129.295,36.481z M128.158,36.511c0-0.781-0.129-1.374-0.387-1.778
		s-0.674-0.606-1.248-0.606c-0.32,0-0.645,0.069-0.973,0.208s-0.633,0.317-0.914,0.536v3.75c0.312,0.141,0.581,0.238,0.806,0.293
		s0.479,0.082,0.765,0.082c0.609,0,1.087-0.2,1.433-0.601S128.158,37.366,128.158,36.511z"/>
	<path fill="#FFFFFF" d="M132.723,32.163h-1.242v-1.143h1.242V32.163z M132.652,39.804h-1.102v-6.545h1.102V39.804z"/>
	<path fill="#FFFFFF" d="M140.446,39.804h-1.096v-0.697c-0.098,0.066-0.229,0.159-0.396,0.278s-0.327,0.214-0.483,0.284
		c-0.184,0.09-0.395,0.165-0.633,0.226s-0.518,0.091-0.838,0.091c-0.59,0-1.09-0.195-1.5-0.586s-0.615-0.889-0.615-1.494
		c0-0.496,0.106-0.897,0.319-1.204s0.517-0.548,0.911-0.724c0.398-0.176,0.877-0.295,1.436-0.357s1.158-0.109,1.799-0.141v-0.17
		c0-0.25-0.044-0.457-0.132-0.621s-0.214-0.293-0.378-0.387c-0.156-0.09-0.344-0.15-0.562-0.182s-0.447-0.047-0.686-0.047
		c-0.289,0-0.611,0.038-0.967,0.114s-0.723,0.187-1.102,0.331h-0.059v-1.119c0.215-0.059,0.525-0.123,0.932-0.193
		s0.807-0.105,1.201-0.105c0.461,0,0.862,0.038,1.204,0.114s0.638,0.206,0.888,0.39c0.246,0.18,0.434,0.412,0.562,0.697
		s0.193,0.639,0.193,1.061V39.804z M139.351,38.192V36.37c-0.336,0.02-0.731,0.049-1.187,0.088s-0.815,0.096-1.081,0.17
		c-0.316,0.09-0.572,0.229-0.768,0.419s-0.293,0.45-0.293,0.782c0,0.375,0.113,0.657,0.34,0.847s0.572,0.284,1.037,0.284
		c0.387,0,0.74-0.075,1.061-0.226S139.077,38.403,139.351,38.192z"/>
	<path fill="#FFFFFF" d="M147.771,37.917c0,0.598-0.247,1.088-0.741,1.471s-1.169,0.574-2.024,0.574
		c-0.484,0-0.929-0.058-1.333-0.173s-0.743-0.241-1.017-0.378v-1.236h0.059c0.348,0.262,0.734,0.47,1.16,0.624
		s0.834,0.231,1.225,0.231c0.484,0,0.863-0.078,1.137-0.234s0.41-0.402,0.41-0.738c0-0.258-0.074-0.453-0.223-0.586
		s-0.434-0.246-0.855-0.34c-0.156-0.035-0.36-0.076-0.612-0.123s-0.481-0.098-0.688-0.152c-0.574-0.152-0.981-0.376-1.222-0.671
		s-0.36-0.657-0.36-1.087c0-0.27,0.056-0.523,0.167-0.762s0.28-0.451,0.507-0.639c0.219-0.184,0.497-0.329,0.835-0.437
		s0.716-0.161,1.134-0.161c0.391,0,0.786,0.048,1.187,0.144s0.733,0.212,0.999,0.349v1.178h-0.059
		c-0.281-0.207-0.623-0.382-1.025-0.524s-0.797-0.214-1.184-0.214c-0.402,0-0.742,0.077-1.02,0.231s-0.416,0.384-0.416,0.688
		c0,0.27,0.084,0.473,0.252,0.609c0.164,0.137,0.43,0.248,0.797,0.334c0.203,0.047,0.431,0.094,0.683,0.141s0.462,0.09,0.63,0.129
		c0.512,0.117,0.906,0.318,1.184,0.604C147.633,37.058,147.771,37.44,147.771,37.917z"/>
	<path fill="#FFFFFF" d="M156.421,37.804h-1.4v-1.67h1.4V37.804z"/>
	<path fill="#FFFFFF" d="M167.549,37.536c0,0.766-0.233,1.355-0.7,1.77s-1.093,0.621-1.878,0.621c-0.188,0-0.438-0.017-0.75-0.05
		s-0.574-0.073-0.785-0.12v-1.084h0.064c0.16,0.055,0.357,0.111,0.592,0.17s0.475,0.088,0.721,0.088
		c0.359,0,0.646-0.041,0.858-0.123s0.37-0.199,0.472-0.352c0.105-0.156,0.173-0.348,0.202-0.574s0.044-0.488,0.044-0.785v-5.092
		h-1.846v-0.926h3.006V37.536z"/>
	<path fill="#FFFFFF" d="M175.671,39.804h-1.102v-0.727c-0.371,0.293-0.727,0.518-1.066,0.674s-0.715,0.234-1.125,0.234
		c-0.688,0-1.223-0.21-1.605-0.63s-0.574-1.036-0.574-1.849v-4.248h1.102v3.727c0,0.332,0.016,0.616,0.047,0.853
		s0.098,0.438,0.199,0.606c0.105,0.172,0.242,0.297,0.41,0.375s0.412,0.117,0.732,0.117c0.285,0,0.597-0.074,0.935-0.223
		s0.653-0.338,0.946-0.568v-4.887h1.102V39.804z"/>
	<path fill="#FFFFFF" d="M183.84,39.804h-1.102v-3.727c0-0.301-0.018-0.583-0.053-0.847s-0.1-0.47-0.193-0.618
		c-0.098-0.164-0.238-0.286-0.422-0.366s-0.422-0.12-0.715-0.12c-0.301,0-0.615,0.074-0.943,0.223s-0.643,0.338-0.943,0.568v4.887
		h-1.102v-6.545h1.102v0.727c0.344-0.285,0.699-0.508,1.066-0.668s0.744-0.24,1.131-0.24c0.707,0,1.246,0.213,1.617,0.639
		s0.557,1.039,0.557,1.84V39.804z"/>
	<path fill="#FFFFFF" d="M191.797,39.06c0,1.109-0.252,1.924-0.756,2.443s-1.279,0.779-2.326,0.779
		c-0.348,0-0.687-0.024-1.017-0.073s-0.655-0.118-0.976-0.208v-1.125h0.059c0.18,0.07,0.465,0.157,0.855,0.261
		s0.781,0.155,1.172,0.155c0.375,0,0.686-0.045,0.932-0.135s0.438-0.215,0.574-0.375c0.137-0.152,0.234-0.336,0.293-0.551
		s0.088-0.455,0.088-0.721v-0.598c-0.332,0.266-0.649,0.464-0.952,0.595s-0.688,0.196-1.157,0.196c-0.781,0-1.401-0.282-1.86-0.847
		s-0.688-1.36-0.688-2.388c0-0.562,0.079-1.048,0.237-1.456s0.374-0.761,0.647-1.058c0.254-0.277,0.562-0.493,0.926-0.647
		s0.725-0.231,1.084-0.231c0.379,0,0.696,0.038,0.952,0.114s0.526,0.192,0.812,0.349l0.07-0.281h1.031V39.06z M190.695,38.005
		v-3.568c-0.293-0.133-0.565-0.228-0.817-0.284s-0.503-0.085-0.753-0.085c-0.605,0-1.082,0.203-1.43,0.609s-0.521,0.996-0.521,1.77
		c0,0.734,0.129,1.291,0.387,1.67s0.686,0.568,1.283,0.568c0.32,0,0.642-0.062,0.964-0.185S190.426,38.212,190.695,38.005z"/>
	<path fill="#FFFFFF" d="M200.253,36.481c0,0.547-0.077,1.039-0.231,1.477s-0.362,0.805-0.624,1.102
		c-0.277,0.309-0.582,0.54-0.914,0.694s-0.697,0.231-1.096,0.231c-0.371,0-0.695-0.044-0.973-0.132s-0.551-0.206-0.82-0.354
		l-0.07,0.305h-1.031v-9.117h1.102v3.258c0.309-0.254,0.637-0.462,0.984-0.624s0.738-0.243,1.172-0.243
		c0.773,0,1.384,0.297,1.831,0.891S200.253,35.399,200.253,36.481z M199.116,36.511c0-0.781-0.129-1.374-0.387-1.778
		s-0.674-0.606-1.248-0.606c-0.32,0-0.645,0.069-0.973,0.208s-0.633,0.317-0.914,0.536v3.75c0.312,0.141,0.581,0.238,0.806,0.293
		s0.479,0.082,0.765,0.082c0.609,0,1.087-0.2,1.433-0.601S199.116,37.366,199.116,36.511z"/>
	<path fill="#FFFFFF" d="M207.584,39.804h-1.096v-0.697c-0.098,0.066-0.229,0.159-0.396,0.278s-0.327,0.214-0.483,0.284
		c-0.184,0.09-0.395,0.165-0.633,0.226s-0.518,0.091-0.838,0.091c-0.59,0-1.09-0.195-1.5-0.586s-0.615-0.889-0.615-1.494
		c0-0.496,0.106-0.897,0.319-1.204s0.517-0.548,0.911-0.724c0.398-0.176,0.877-0.295,1.436-0.357s1.158-0.109,1.799-0.141v-0.17
		c0-0.25-0.044-0.457-0.132-0.621s-0.214-0.293-0.378-0.387c-0.156-0.09-0.344-0.15-0.562-0.182s-0.447-0.047-0.686-0.047
		c-0.289,0-0.611,0.038-0.967,0.114s-0.723,0.187-1.102,0.331h-0.059v-1.119c0.215-0.059,0.525-0.123,0.932-0.193
		s0.807-0.105,1.201-0.105c0.461,0,0.862,0.038,1.204,0.114s0.638,0.206,0.888,0.39c0.246,0.18,0.434,0.412,0.562,0.697
		s0.193,0.639,0.193,1.061V39.804z M206.488,38.192V36.37c-0.336,0.02-0.731,0.049-1.187,0.088s-0.815,0.096-1.081,0.17
		c-0.316,0.09-0.572,0.229-0.768,0.419s-0.293,0.45-0.293,0.782c0,0.375,0.113,0.657,0.34,0.847s0.572,0.284,1.037,0.284
		c0.387,0,0.74-0.075,1.061-0.226S206.215,38.403,206.488,38.192z"/>
	<path fill="#FFFFFF" d="M215.658,39.804h-1.102v-0.727c-0.371,0.293-0.727,0.518-1.066,0.674s-0.715,0.234-1.125,0.234
		c-0.688,0-1.223-0.21-1.605-0.63s-0.574-1.036-0.574-1.849v-4.248h1.102v3.727c0,0.332,0.016,0.616,0.047,0.853
		s0.098,0.438,0.199,0.606c0.105,0.172,0.242,0.297,0.41,0.375s0.412,0.117,0.732,0.117c0.285,0,0.597-0.074,0.935-0.223
		s0.653-0.338,0.946-0.568v-4.887h1.102V39.804z"/>
	<path fill="#FFFFFF" d="M223.833,36.646h-4.822c0,0.402,0.061,0.753,0.182,1.052s0.287,0.544,0.498,0.735
		c0.203,0.188,0.444,0.328,0.724,0.422s0.587,0.141,0.923,0.141c0.445,0,0.894-0.089,1.345-0.267s0.772-0.353,0.964-0.524h0.059
		v1.201c-0.371,0.156-0.75,0.287-1.137,0.393s-0.793,0.158-1.219,0.158c-1.086,0-1.934-0.294-2.543-0.882s-0.914-1.423-0.914-2.505
		c0-1.07,0.292-1.92,0.876-2.549s1.353-0.943,2.306-0.943c0.883,0,1.563,0.258,2.042,0.773s0.718,1.248,0.718,2.197V36.646z
		 M222.761,35.802c-0.004-0.578-0.149-1.025-0.437-1.342s-0.724-0.475-1.31-0.475c-0.59,0-1.06,0.174-1.409,0.521
		s-0.548,0.779-0.595,1.295H222.761z"/>
	<path fill="#FFFFFF" d="M230.115,34.46h-0.059c-0.164-0.039-0.323-0.067-0.478-0.085s-0.337-0.026-0.548-0.026
		c-0.34,0-0.668,0.075-0.984,0.226s-0.621,0.345-0.914,0.583v4.646h-1.102v-6.545h1.102v0.967c0.438-0.352,0.823-0.601,1.157-0.747
		s0.675-0.22,1.022-0.22c0.191,0,0.33,0.005,0.416,0.015s0.215,0.028,0.387,0.056V34.46z"/>
</g>
<g>
	<path fill="#FFFFFF" d="M68.2,16.121c0,1.058-0.23,2.016-0.691,2.875s-1.074,1.526-1.84,2c-0.531,0.328-1.124,0.565-1.777,0.711
		c-0.653,0.146-1.515,0.219-2.582,0.219h-2.938V10.293h2.906c1.136,0,2.038,0.082,2.707,0.246s1.235,0.39,1.699,0.676
		c0.792,0.495,1.409,1.154,1.852,1.977C67.979,14.015,68.2,14.991,68.2,16.121z M66.583,16.098c0-0.911-0.159-1.68-0.477-2.305
		s-0.792-1.117-1.422-1.477c-0.458-0.26-0.945-0.441-1.461-0.543s-1.133-0.152-1.852-0.152h-1.453v8.977h1.453
		c0.745,0,1.395-0.055,1.949-0.164s1.063-0.312,1.527-0.609c0.578-0.369,1.012-0.856,1.301-1.461
		C66.438,17.76,66.583,17.004,66.583,16.098z"/>
	<path fill="#FFFFFF" d="M77.364,21.926h-1.461v-0.93c-0.13,0.089-0.306,0.213-0.527,0.371c-0.222,0.159-0.437,0.285-0.645,0.379
		c-0.245,0.12-0.526,0.22-0.844,0.301c-0.317,0.08-0.69,0.121-1.117,0.121c-0.786,0-1.453-0.26-2-0.781
		c-0.547-0.521-0.82-1.185-0.82-1.992c0-0.661,0.142-1.196,0.426-1.605c0.284-0.408,0.688-0.73,1.215-0.965
		c0.531-0.234,1.169-0.393,1.914-0.477c0.745-0.083,1.544-0.146,2.398-0.188v-0.227c0-0.333-0.059-0.609-0.176-0.828
		s-0.285-0.391-0.504-0.516c-0.208-0.119-0.458-0.2-0.75-0.242c-0.292-0.041-0.597-0.062-0.914-0.062
		c-0.386,0-0.815,0.051-1.289,0.152s-0.964,0.249-1.469,0.441h-0.078v-1.492c0.286-0.078,0.7-0.164,1.242-0.258
		s1.075-0.141,1.602-0.141c0.614,0,1.149,0.051,1.605,0.152s0.851,0.275,1.184,0.52c0.328,0.24,0.578,0.55,0.75,0.93
		c0.172,0.381,0.258,0.852,0.258,1.414V21.926z M75.903,19.777v-2.43c-0.448,0.026-0.976,0.065-1.582,0.117
		c-0.606,0.053-1.087,0.128-1.441,0.227c-0.422,0.12-0.763,0.307-1.023,0.559c-0.261,0.253-0.391,0.601-0.391,1.043
		c0,0.5,0.151,0.877,0.453,1.129c0.302,0.253,0.763,0.379,1.383,0.379c0.516,0,0.987-0.1,1.414-0.301
		C75.143,20.3,75.539,20.059,75.903,19.777z"/>
	<path fill="#FFFFFF" d="M84.724,21.848c-0.276,0.073-0.577,0.133-0.902,0.18s-0.616,0.07-0.871,0.07
		c-0.891,0-1.567-0.239-2.031-0.719c-0.464-0.479-0.695-1.247-0.695-2.305v-4.641h-0.992v-1.234h0.992v-2.508h1.469v2.508h3.031
		v1.234h-3.031v3.977c0,0.459,0.011,0.816,0.031,1.074s0.094,0.499,0.219,0.723c0.114,0.209,0.272,0.361,0.473,0.457
		c0.2,0.097,0.507,0.145,0.918,0.145c0.239,0,0.489-0.035,0.75-0.105s0.448-0.129,0.562-0.176h0.078V21.848z"/>
	<path fill="#FFFFFF" d="M93.802,17.715h-6.43c0,0.537,0.081,1.004,0.242,1.402s0.383,0.726,0.664,0.98
		c0.271,0.25,0.593,0.438,0.965,0.562s0.782,0.188,1.23,0.188c0.594,0,1.191-0.118,1.793-0.355c0.602-0.236,1.03-0.47,1.285-0.699
		h0.078v1.602c-0.495,0.209-1,0.383-1.516,0.523s-1.058,0.211-1.625,0.211c-1.448,0-2.578-0.392-3.391-1.176
		c-0.812-0.783-1.219-1.896-1.219-3.34c0-1.427,0.39-2.56,1.168-3.398c0.778-0.838,1.804-1.258,3.074-1.258
		c1.177,0,2.085,0.344,2.723,1.031s0.957,1.664,0.957,2.93V17.715z M92.372,16.59c-0.005-0.771-0.199-1.367-0.582-1.789
		s-0.965-0.633-1.746-0.633c-0.786,0-1.413,0.232-1.879,0.695c-0.466,0.464-0.73,1.039-0.793,1.727H92.372z"/>
	<path fill="#FFFFFF" d="M103.325,21.926h-1.469v-4.969c0-0.4-0.023-0.777-0.07-1.129s-0.133-0.626-0.258-0.824
		c-0.13-0.219-0.317-0.381-0.562-0.488c-0.245-0.106-0.562-0.16-0.953-0.16c-0.401,0-0.82,0.1-1.258,0.297
		c-0.438,0.198-0.856,0.451-1.258,0.758v6.516h-1.469v-8.727h1.469v0.969c0.458-0.38,0.933-0.677,1.422-0.891
		c0.489-0.213,0.992-0.32,1.508-0.32c0.942,0,1.661,0.284,2.156,0.852c0.495,0.568,0.742,1.386,0.742,2.453V21.926z"/>
	<path fill="#FFFFFF" d="M111.599,14.801h-0.078c-0.219-0.052-0.431-0.09-0.637-0.113s-0.449-0.035-0.73-0.035
		c-0.453,0-0.891,0.101-1.312,0.301c-0.422,0.201-0.828,0.46-1.219,0.777v6.195h-1.469v-8.727h1.469v1.289
		c0.583-0.469,1.098-0.801,1.543-0.996s0.899-0.293,1.363-0.293c0.255,0,0.44,0.007,0.555,0.02c0.114,0.014,0.286,0.038,0.516,0.074
		V14.801z"/>
	<path fill="#FFFFFF" d="M120.286,17.715h-6.43c0,0.537,0.081,1.004,0.242,1.402s0.383,0.726,0.664,0.98
		c0.271,0.25,0.593,0.438,0.965,0.562s0.782,0.188,1.23,0.188c0.594,0,1.191-0.118,1.793-0.355c0.602-0.236,1.03-0.47,1.285-0.699
		h0.078v1.602c-0.495,0.209-1,0.383-1.516,0.523s-1.058,0.211-1.625,0.211c-1.448,0-2.578-0.392-3.391-1.176
		c-0.812-0.783-1.219-1.896-1.219-3.34c0-1.427,0.39-2.56,1.168-3.398c0.778-0.838,1.804-1.258,3.074-1.258
		c1.177,0,2.085,0.344,2.723,1.031s0.957,1.664,0.957,2.93V17.715z M118.856,16.59c-0.005-0.771-0.199-1.367-0.582-1.789
		s-0.965-0.633-1.746-0.633c-0.786,0-1.413,0.232-1.879,0.695c-0.466,0.464-0.73,1.039-0.793,1.727H118.856z"/>
	<path fill="#FFFFFF" d="M127.044,21.848c-0.276,0.073-0.577,0.133-0.902,0.18s-0.616,0.07-0.871,0.07
		c-0.891,0-1.567-0.239-2.031-0.719c-0.464-0.479-0.695-1.247-0.695-2.305v-4.641h-0.992v-1.234h0.992v-2.508h1.469v2.508h3.031
		v1.234h-3.031v3.977c0,0.459,0.011,0.816,0.031,1.074s0.094,0.499,0.219,0.723c0.114,0.209,0.272,0.361,0.473,0.457
		c0.2,0.097,0.507,0.145,0.918,0.145c0.239,0,0.489-0.035,0.75-0.105s0.448-0.129,0.562-0.176h0.078V21.848z"/>
	<path fill="#FFFFFF" d="M133.349,21.848c-0.276,0.073-0.577,0.133-0.902,0.18s-0.616,0.07-0.871,0.07
		c-0.891,0-1.567-0.239-2.031-0.719c-0.464-0.479-0.695-1.247-0.695-2.305v-4.641h-0.992v-1.234h0.992v-2.508h1.469v2.508h3.031
		v1.234h-3.031v3.977c0,0.459,0.011,0.816,0.031,1.074s0.094,0.499,0.219,0.723c0.114,0.209,0.272,0.361,0.473,0.457
		c0.2,0.097,0.507,0.145,0.918,0.145c0.239,0,0.489-0.035,0.75-0.105s0.448-0.129,0.562-0.176h0.078V21.848z"/>
	<path fill="#FFFFFF" d="M142.356,21.926h-1.469v-0.969c-0.495,0.391-0.969,0.69-1.422,0.898s-0.953,0.312-1.5,0.312
		c-0.917,0-1.63-0.279-2.141-0.84c-0.511-0.56-0.766-1.381-0.766-2.465v-5.664h1.469v4.969c0,0.443,0.021,0.822,0.062,1.137
		c0.042,0.315,0.13,0.585,0.266,0.809c0.141,0.229,0.323,0.396,0.547,0.5c0.224,0.104,0.55,0.156,0.977,0.156
		c0.38,0,0.796-0.099,1.246-0.297c0.45-0.197,0.871-0.45,1.262-0.758v-6.516h1.469V21.926z"/>
	<path fill="#FFFFFF" d="M152.544,21.926h-1.469v-4.969c0-0.4-0.023-0.777-0.07-1.129s-0.133-0.626-0.258-0.824
		c-0.13-0.219-0.317-0.381-0.562-0.488c-0.245-0.106-0.562-0.16-0.953-0.16c-0.401,0-0.82,0.1-1.258,0.297
		c-0.438,0.198-0.856,0.451-1.258,0.758v6.516h-1.469v-8.727h1.469v0.969c0.458-0.38,0.933-0.677,1.422-0.891
		c0.489-0.213,0.992-0.32,1.508-0.32c0.942,0,1.661,0.284,2.156,0.852c0.495,0.568,0.742,1.386,0.742,2.453V21.926z"/>
	<path fill="#FFFFFF" d="M162.45,20.934c0,1.479-0.336,2.564-1.008,3.258c-0.672,0.692-1.706,1.039-3.102,1.039
		c-0.464,0-0.915-0.033-1.355-0.098c-0.44-0.065-0.874-0.158-1.301-0.277v-1.5h0.078c0.239,0.094,0.62,0.209,1.141,0.348
		c0.521,0.138,1.042,0.207,1.562,0.207c0.5,0,0.914-0.061,1.242-0.18c0.328-0.12,0.583-0.287,0.766-0.5
		c0.183-0.203,0.312-0.448,0.391-0.734c0.078-0.287,0.117-0.606,0.117-0.961v-0.797c-0.442,0.354-0.866,0.619-1.27,0.793
		c-0.403,0.175-0.918,0.262-1.543,0.262c-1.042,0-1.868-0.376-2.48-1.129c-0.612-0.752-0.918-1.813-0.918-3.184
		c0-0.75,0.105-1.396,0.316-1.941c0.211-0.544,0.499-1.014,0.863-1.41c0.339-0.369,0.75-0.657,1.234-0.863
		c0.484-0.205,0.966-0.309,1.445-0.309c0.505,0,0.929,0.051,1.27,0.152s0.702,0.257,1.082,0.465l0.094-0.375h1.375V20.934z
		 M160.981,19.527V14.77c-0.391-0.177-0.754-0.303-1.09-0.379c-0.336-0.075-0.671-0.113-1.004-0.113
		c-0.808,0-1.442,0.271-1.906,0.812c-0.464,0.542-0.695,1.328-0.695,2.359c0,0.979,0.172,1.722,0.516,2.227
		c0.344,0.506,0.914,0.758,1.711,0.758c0.427,0,0.855-0.082,1.285-0.246S160.622,19.804,160.981,19.527z"/>
	<path fill="#FFFFFF" d="M179.575,14.824v0.75c0,0.5-0.065,1.062-0.195,1.688s-0.352,1.222-0.664,1.789l2.953,2.875h-1.922
		l-1.789-1.75c-0.599,0.74-1.211,1.257-1.836,1.551s-1.269,0.441-1.93,0.441c-1.083,0-1.983-0.316-2.699-0.949
		s-1.074-1.462-1.074-2.488c0-0.479,0.067-0.893,0.203-1.242c0.136-0.349,0.294-0.65,0.477-0.906
		c0.183-0.244,0.409-0.475,0.68-0.691c0.271-0.216,0.544-0.404,0.82-0.566c-0.573-0.375-0.985-0.752-1.238-1.133
		c-0.253-0.38-0.379-0.859-0.379-1.438c0-0.349,0.069-0.681,0.207-0.996c0.138-0.314,0.345-0.603,0.621-0.863
		c0.261-0.25,0.601-0.453,1.02-0.609s0.882-0.234,1.387-0.234c0.901,0,1.63,0.229,2.188,0.684c0.558,0.456,0.836,1.033,0.836,1.73
		c0,0.229-0.031,0.488-0.094,0.777s-0.169,0.549-0.32,0.777c-0.167,0.256-0.403,0.5-0.711,0.734s-0.706,0.436-1.195,0.602
		l2.898,2.828c0.073-0.208,0.128-0.438,0.164-0.688s0.058-0.51,0.062-0.781c0.011-0.291,0.015-0.617,0.012-0.977
		s-0.004-0.664-0.004-0.914H179.575z M177.224,19.465l-3.734-3.641c-0.161,0.078-0.323,0.182-0.484,0.309
		c-0.161,0.128-0.323,0.301-0.484,0.52c-0.146,0.203-0.266,0.448-0.359,0.734c-0.094,0.287-0.141,0.609-0.141,0.969
		c0,0.761,0.223,1.374,0.668,1.84c0.445,0.467,1.077,0.699,1.895,0.699c0.484,0,0.965-0.118,1.441-0.355
		C176.501,20.303,176.9,19.944,177.224,19.465z M175.708,12.621c0-0.494-0.147-0.884-0.441-1.168
		c-0.294-0.283-0.671-0.426-1.129-0.426c-0.479,0-0.87,0.16-1.172,0.48s-0.453,0.713-0.453,1.176c0,0.391,0.103,0.737,0.309,1.039
		c0.206,0.303,0.649,0.659,1.332,1.07c0.511-0.182,0.897-0.449,1.16-0.801S175.708,13.184,175.708,12.621z"/>
	<path fill="#FFFFFF" d="M192.435,21.926h-4.594v-1.188h1.523V11.48h-1.523v-1.188h4.594v1.188h-1.523v9.258h1.523V21.926z"/>
	<path fill="#FFFFFF" d="M203.364,11.668h-4.156v10.258h-1.547V11.668h-4.156v-1.375h9.859V11.668z"/>
	<path fill="#FFFFFF" d="M208.263,17.543h-4.875v-1.414h4.875V17.543z"/>
	<path fill="#FFFFFF" d="M218.45,11.668h-5.883v3.281h5.055v1.375h-5.055v5.602h-1.547V10.293h7.43V11.668z"/>
	<path fill="#FFFFFF" d="M227.146,17.566c0,1.422-0.364,2.545-1.094,3.367c-0.729,0.823-1.706,1.234-2.93,1.234
		c-1.234,0-2.215-0.411-2.941-1.234c-0.727-0.822-1.09-1.945-1.09-3.367s0.363-2.545,1.09-3.371
		c0.727-0.825,1.707-1.238,2.941-1.238c1.224,0,2.2,0.413,2.93,1.238C226.781,15.021,227.146,16.145,227.146,17.566z M225.63,17.566
		c0-1.13-0.222-1.97-0.664-2.52c-0.442-0.549-1.058-0.824-1.844-0.824c-0.797,0-1.415,0.275-1.855,0.824
		c-0.44,0.55-0.66,1.39-0.66,2.52c0,1.094,0.222,1.924,0.664,2.488c0.442,0.565,1.06,0.848,1.852,0.848
		c0.781,0,1.395-0.279,1.84-0.84C225.407,19.503,225.63,18.671,225.63,17.566z"/>
	<path fill="#FFFFFF" d="M234.864,14.801h-0.078c-0.219-0.052-0.431-0.09-0.637-0.113s-0.449-0.035-0.73-0.035
		c-0.453,0-0.891,0.101-1.312,0.301c-0.422,0.201-0.828,0.46-1.219,0.777v6.195h-1.469v-8.727h1.469v1.289
		c0.583-0.469,1.098-0.801,1.543-0.996s0.899-0.293,1.363-0.293c0.255,0,0.44,0.007,0.555,0.02c0.114,0.014,0.286,0.038,0.516,0.074
		V14.801z"/>
	<path fill="#FFFFFF" d="M243.552,17.715h-6.43c0,0.537,0.081,1.004,0.242,1.402s0.383,0.726,0.664,0.98
		c0.271,0.25,0.593,0.438,0.965,0.562s0.782,0.188,1.23,0.188c0.594,0,1.191-0.118,1.793-0.355c0.602-0.236,1.03-0.47,1.285-0.699
		h0.078v1.602c-0.495,0.209-1,0.383-1.516,0.523s-1.058,0.211-1.625,0.211c-1.448,0-2.578-0.392-3.391-1.176
		c-0.812-0.783-1.219-1.896-1.219-3.34c0-1.427,0.39-2.56,1.168-3.398c0.778-0.838,1.804-1.258,3.074-1.258
		c1.177,0,2.085,0.344,2.723,1.031s0.957,1.664,0.957,2.93V17.715z M242.122,16.59c-0.005-0.771-0.199-1.367-0.582-1.789
		s-0.965-0.633-1.746-0.633c-0.786,0-1.413,0.232-1.879,0.695c-0.466,0.464-0.73,1.039-0.793,1.727H242.122z"/>
	<path fill="#FFFFFF" d="M253.075,21.926h-1.469v-4.969c0-0.4-0.023-0.777-0.07-1.129s-0.133-0.626-0.258-0.824
		c-0.13-0.219-0.317-0.381-0.562-0.488c-0.245-0.106-0.562-0.16-0.953-0.16c-0.401,0-0.82,0.1-1.258,0.297
		c-0.438,0.198-0.856,0.451-1.258,0.758v6.516h-1.469v-8.727h1.469v0.969c0.458-0.38,0.933-0.677,1.422-0.891
		c0.489-0.213,0.992-0.32,1.508-0.32c0.942,0,1.661,0.284,2.156,0.852c0.495,0.568,0.742,1.386,0.742,2.453V21.926z"/>
	<path fill="#FFFFFF" d="M262.138,19.41c0,0.797-0.329,1.451-0.988,1.961c-0.659,0.511-1.559,0.766-2.699,0.766
		c-0.646,0-1.238-0.077-1.777-0.23s-0.991-0.321-1.355-0.504v-1.648h0.078c0.464,0.35,0.979,0.627,1.547,0.832
		c0.567,0.206,1.112,0.309,1.633,0.309c0.646,0,1.151-0.104,1.516-0.312c0.364-0.208,0.547-0.536,0.547-0.984
		c0-0.344-0.099-0.604-0.297-0.781c-0.198-0.177-0.578-0.328-1.141-0.453c-0.208-0.047-0.48-0.102-0.816-0.164
		s-0.642-0.13-0.918-0.203c-0.766-0.203-1.309-0.501-1.629-0.895c-0.32-0.393-0.48-0.876-0.48-1.449
		c0-0.359,0.074-0.697,0.223-1.016c0.148-0.317,0.374-0.602,0.676-0.852c0.292-0.244,0.663-0.438,1.113-0.582
		c0.45-0.143,0.954-0.215,1.512-0.215c0.521,0,1.048,0.064,1.582,0.191c0.534,0.128,0.978,0.283,1.332,0.465v1.57h-0.078
		c-0.375-0.275-0.831-0.509-1.367-0.699c-0.536-0.189-1.062-0.285-1.578-0.285c-0.536,0-0.989,0.104-1.359,0.309
		c-0.37,0.206-0.555,0.512-0.555,0.918c0,0.359,0.112,0.631,0.336,0.812c0.219,0.183,0.573,0.331,1.062,0.445
		c0.271,0.062,0.574,0.125,0.91,0.188s0.616,0.12,0.84,0.172c0.683,0.156,1.208,0.425,1.578,0.805
		C261.953,18.265,262.138,18.775,262.138,19.41z"/>
	<path fill="#FFFFFF" d="M265.817,11.738h-1.656v-1.523h1.656V11.738z M265.724,21.926h-1.469v-8.727h1.469V21.926z"/>
	<path fill="#FFFFFF" d="M276.552,21.926h-1.938l-3.5-3.82l-0.953,0.906v2.914h-1.469V9.77h1.469v7.797l4.242-4.367h1.852
		L272.2,17.23L276.552,21.926z"/>
</g>
<path fill="#222223" d="M174.749,12.984l0.202-3.019c0,0,0.784-0.302,1.909,0.659c0,0,1.288,1.691,0.788,3.285
	c0,0-1.189,2.678-1.978,1.875l-0.021,0.208c0,0-0.756-0.726-1.959-1.554l-0.112-0.51L174.749,12.984z"/>
<rect x="177.354" y="13.901" fill="#222223" stroke="#222223" stroke-miterlimit="10" width="3.01" height="1.089"/>
</svg>
