<?xml version="1.0" encoding="utf-8"?>
<svg viewBox="163.051 277.823 257.738 38.62" xmlns="http://www.w3.org/2000/svg">
  <rect x="45.417" y="33.814" fill="none" stroke-width="2" stroke-miterlimit="10" width="44.056" height="34.651" transform="matrix(1, 0, 0, 1, 117.63406, 244.008918)" style="stroke: rgb(197, 197, 197);"/>
  <path fill="none" stroke-width="2" stroke-miterlimit="10" d="M59.396,40.617 c2.842-3.242,6.934-5.382,11.579-5.641c9.164-0.509,17.005,6.508,17.515,15.673c0.509,9.164-6.51,17.005-15.674,17.513 c-9.163,0.509-17.005-6.508-17.514-15.671" transform="matrix(1, 0, 0, 1, 117.63406, 244.008918)" style="stroke: rgb(197, 197, 197);"/>
  <line fill="none" stroke-width="2" stroke-miterlimit="10" x1="51.367" y1="44.753" x2="79.439" y2="56.677" transform="matrix(1, 0, 0, 1, 117.63406, 244.008918)" style="stroke: rgb(197, 197, 197);"/>
  <polyline fill="none" stroke-width="2" stroke-miterlimit="10" points="55.884,37.244 59.855,40.52 79.439,56.677 &#10;&#9;" transform="matrix(1, 0, 0, 1, 117.63406, 244.008918)" style="stroke: rgb(197, 197, 197);"/>
  <line fill="none" stroke-width="2" stroke-miterlimit="10" x1="49.042" y1="57.281" x2="55.518" y2="46.552" transform="matrix(1, 0, 0, 1, 117.63406, 244.008918)" style="stroke: rgb(197, 197, 197);"/>
  <line fill="none" stroke-width="2" stroke-miterlimit="10" x1="45.417" y1="54.453" x2="57.836" y2="33.882" transform="matrix(1, 0, 0, 1, 117.63406, 244.008918)" style="stroke: rgb(197, 197, 197);"/>
  <line fill="none" stroke-width="2" stroke-miterlimit="10" x1="45.417" y1="45.5" x2="52.473" y2="33.814" transform="matrix(1, 0, 0, 1, 117.63406, 244.008918)" style="stroke: rgb(197, 197, 197);"/>
  <line fill="none" stroke-width="2" stroke-miterlimit="10" x1="48.936" y1="56.654" x2="59.831" y2="68.392" transform="matrix(1, 0, 0, 1, 117.63406, 244.008918)" style="stroke: rgb(197, 197, 197);"/>
  <path fill="none" stroke-width="2" stroke-miterlimit="10" d="M74.352,54.736c-1.02,1.067-2.538,1.619-4.099,1.337 c-2.291-0.412-3.87-2.474-3.735-4.742" transform="matrix(1, 0, 0, 1, 117.63406, 244.008918)" style="stroke: rgb(197, 197, 197);"/>
  <path fill="none" stroke-width="2" stroke-miterlimit="10" d="M68.423,47.892c0.962-0.685,2.188-0.997,3.441-0.771 c2.473,0.445,4.116,2.811,3.671,5.281c-0.039,0.217-0.093,0.429-0.16,0.632" transform="matrix(1, 0, 0, 1, 117.63406, 244.008918)" style="stroke: rgb(197, 197, 197);"/>
  <g transform="matrix(1, 0, 0, 1, 117.63406, 244.008918)">
    <path d="M103.862,36.97h-0.887c-0.793,0-1.465-0.288-1.465-1.2c0-0.864,0.648-1.2,1.393-1.2h4.008c1.871,0,2.809,0.768,3.625,2.4 l2.111,4.225c0.48,0.984,0.721,1.68,0.721,2.784c0,0.96-0.264,1.776-0.697,2.64l-2.184,4.368c-0.84,1.704-1.92,2.256-3.793,2.256 h-3.984c-0.623,0-1.199-0.336-1.199-1.2c0-0.864,0.576-1.2,1.199-1.2h1.152V36.97z M106.263,50.843h0.457 c1.008,0,1.248-0.12,1.68-1.008l2.111-4.272c0.264-0.552,0.457-0.96,0.457-1.56c0-0.816-0.264-1.272-0.6-1.968l-1.992-4.056 c-0.504-1.032-0.721-1.008-1.824-1.008h-0.289V50.843z" style="fill: rgb(197, 197, 197);"/>
    <path d="M122.942,42.61c-0.672,0-1.584-0.144-1.584-1.152c0-0.984,0.816-1.152,1.584-1.152h3.168c1.201,0,2.064,0.12,2.977,1.032 c0.889,0.888,1.008,1.584,1.031,2.736l0.24,7.825c0.025,0.672-0.313,1.344-1.08,1.344c-0.6,0-1.199-0.504-1.176-1.152l-1.584,0.816 c-0.648,0.336-0.672,0.336-1.416,0.336h-2.209c-1.031,0-1.775-0.12-2.615-0.816c-0.961-0.792-1.201-1.632-1.201-2.833v-1.008 c0-1.104,0.266-1.8,1.129-2.568c0.793-0.696,1.68-0.864,2.688-0.864h4.945v-0.528c0-1.728-0.385-2.016-2.041-2.016H122.942z M122.919,47.458c-0.625,0-1.537,0.168-1.537,1.008v1.536c0,0.768,0.936,0.936,1.488,0.936h2.545l2.543-1.32v-0.504 c0-1.272-0.359-1.656-1.631-1.656H122.919z" style="fill: rgb(197, 197, 197);"/>
    <path d="M140.991,48.899c0,1.296-0.049,2.04,1.535,2.04h1.176c0.938,0,1.369-0.072,1.609-1.008 c0.143-0.552,0.576-0.936,1.152-0.936c0.646,0,1.176,0.504,1.176,1.152s-0.408,1.464-0.793,1.92 c-0.84,1.008-1.943,1.176-3.168,1.176h-1.176c-1.152,0-2.16-0.264-2.977-1.152c-0.889-0.984-0.84-1.968-0.84-3.216V42.61h-0.744 c-0.672,0-1.584-0.144-1.584-1.152c0-0.984,0.816-1.152,1.584-1.152h0.744v-2.353c0-0.792,0.168-1.584,1.152-1.584 s1.152,0.792,1.152,1.584v2.353h3.863c0.768,0,1.584,0.168,1.584,1.152c0,1.008-0.912,1.152-1.584,1.152h-3.863V48.899z" style="fill: rgb(197, 197, 197);"/>
    <path d="M157.862,53.243c-0.961,0-1.344,0-2.064-0.624l-0.984-0.864c-0.912-0.816-1.176-1.344-1.176-2.592v-4.44 c0-1.224,0.168-1.944,1.127-2.76l0.816-0.696c1.08-0.936,1.609-0.96,2.545-0.96h2.111c1.129,0,1.656,0.12,2.545,0.84l0.936,0.744 c1.057,0.84,1.201,1.728,1.201,3v1.848c0,1.32-0.217,1.704-1.584,1.704h-7.393v0.768c0,0.216,0.168,0.504,0.336,0.672l0.576,0.624 c0.311,0.336,0.768,0.432,1.535,0.432h4.945c0.768,0,1.584,0.168,1.584,1.152c0,1.008-0.912,1.152-1.584,1.152H157.862z M155.942,46.139h6.672v-1.392c0-0.432,0.023-0.792-0.287-1.08l-0.889-0.768c-0.289-0.264-0.744-0.288-1.104-0.288h-1.945 c-0.432,0-0.791,0-1.176,0.264l-0.793,0.576c-0.287,0.216-0.479,0.384-0.479,1.056V46.139z" style="fill: rgb(197, 197, 197);"/>
    <path d="M173.222,44.962v6.697c0,0.792-0.168,1.584-1.152,1.584s-1.152-0.792-1.152-1.584V42.01c0-0.84,0.098-1.704,1.152-1.704 c1.033,0,1.152,0.864,1.152,1.68v0.264v0.048l1.873-1.224c0.6-0.384,1.248-0.768,1.992-0.768h1.703c0.889,0,1.441,0.24,2.137,0.84 c1.031,0.888,0.984,1.872,1.031,3.121l0.24,7.249c0.025,0.816-0.096,1.728-1.127,1.728c-0.938,0-1.129-0.792-1.152-1.56 l-0.24-7.104c-0.049-1.417-0.168-1.968-1.561-1.968h-0.768c-0.24,0-0.48,0.072-0.721,0.216L173.222,44.962z" style="fill: rgb(197, 197, 197);"/>
    <path d="M188.196,42.01c0-0.84,0.098-1.704,1.152-1.704c0.912,0,1.152,0.768,1.152,1.536v0.936l1.801-1.488 c0.648-0.528,1.32-0.984,2.039-0.984h1.85c0.887,0,1.631,0.288,2.256,0.912c0.768,0.768,1.031,1.56,1.031,2.616 c0,0.792-0.143,1.608-1.127,1.608c-0.84,0-1.178-0.672-1.178-1.416c0-0.384,0-0.672-0.238-1.008 c-0.289-0.408-0.842-0.408-1.393-0.408h-0.672c-0.432,0-0.744,0.216-1.152,0.552l-3.217,2.665v5.833 c0,0.792-0.168,1.584-1.152,1.584s-1.152-0.792-1.152-1.584V42.01z" style="fill: rgb(197, 197, 197);"/>
    <path d="M209.7,53.243c-0.959,0-1.344,0-2.064-0.624l-0.982-0.864c-0.912-0.816-1.178-1.344-1.178-2.592v-4.44 c0-1.224,0.168-1.944,1.129-2.76l0.816-0.696c1.08-0.936,1.607-0.96,2.543-0.96h2.113c1.127,0,1.656,0.12,2.545,0.84l0.936,0.744 c1.057,0.84,1.199,1.728,1.199,3v1.848c0,1.32-0.215,1.704-1.584,1.704h-7.393v0.768c0,0.216,0.168,0.504,0.336,0.672l0.576,0.624 c0.313,0.336,0.768,0.432,1.537,0.432h4.943c0.768,0,1.584,0.168,1.584,1.152c0,1.008-0.912,1.152-1.584,1.152H209.7z M207.78,46.139h6.672v-1.392c0-0.432,0.025-0.792-0.287-1.08l-0.889-0.768c-0.287-0.264-0.744-0.288-1.104-0.288h-1.943 c-0.434,0-0.793,0-1.178,0.264l-0.791,0.576c-0.289,0.216-0.48,0.384-0.48,1.056V46.139z" style="fill: rgb(197, 197, 197);"/>
    <path d="M227.39,48.899c0,1.296-0.049,2.04,1.535,2.04h1.176c0.938,0,1.369-0.072,1.609-1.008c0.143-0.552,0.576-0.936,1.152-0.936 c0.646,0,1.176,0.504,1.176,1.152s-0.408,1.464-0.793,1.92c-0.84,1.008-1.943,1.176-3.168,1.176h-1.176 c-1.152,0-2.16-0.264-2.977-1.152c-0.889-0.984-0.84-1.968-0.84-3.216V42.61h-0.744c-0.672,0-1.584-0.144-1.584-1.152 c0-0.984,0.816-1.152,1.584-1.152h0.744v-2.353c0-0.792,0.168-1.584,1.152-1.584s1.152,0.792,1.152,1.584v2.353h3.863 c0.768,0,1.584,0.168,1.584,1.152c0,1.008-0.912,1.152-1.584,1.152h-3.863V48.899z" style="fill: rgb(197, 197, 197);"/>
    <path d="M244.669,48.899c0,1.296-0.049,2.04,1.535,2.04h1.176c0.938,0,1.369-0.072,1.609-1.008 c0.143-0.552,0.576-0.936,1.152-0.936c0.646,0,1.176,0.504,1.176,1.152s-0.408,1.464-0.793,1.92 c-0.84,1.008-1.943,1.176-3.168,1.176h-1.176c-1.152,0-2.16-0.264-2.977-1.152c-0.889-0.984-0.84-1.968-0.84-3.216V42.61h-0.744 c-0.672,0-1.584-0.144-1.584-1.152c0-0.984,0.816-1.152,1.584-1.152h0.744v-2.353c0-0.792,0.168-1.584,1.152-1.584 s1.152,0.792,1.152,1.584v2.353h3.863c0.768,0,1.584,0.168,1.584,1.152c0,1.008-0.912,1.152-1.584,1.152h-3.863V48.899z" style="fill: rgb(197, 197, 197);"/>
    <path d="M268.597,51.539c0,0.528,0.096,1.704-1.129,1.704c-0.984,0-1.152-0.816-1.152-1.608v-0.384l-1.871,1.224 c-0.744,0.48-1.369,0.768-1.992,0.768h-1.705c-0.648,0-1.367-0.192-2.137-0.84c-1.031-0.888-1.008-1.873-1.055-3.121l-0.24-7.249 c-0.023-0.84,0.096-1.728,1.152-1.728c0.984,0,1.104,0.84,1.127,1.584l0.24,7.081c0.025,0.528,0.049,1.152,0.24,1.488 s0.793,0.48,1.344,0.48h0.77c0.264,0,0.504-0.072,0.719-0.216l3.385-2.136V41.89c0-0.792,0.168-1.584,1.152-1.584 s1.152,0.792,1.152,1.584V51.539z" style="fill: rgb(197, 197, 197);"/>
    <path d="M276.899,44.962v6.697c0,0.792-0.168,1.584-1.152,1.584s-1.152-0.792-1.152-1.584V42.01c0-0.84,0.098-1.704,1.152-1.704 c1.033,0,1.152,0.864,1.152,1.68v0.264v0.048l1.873-1.224c0.6-0.384,1.248-0.768,1.992-0.768h1.703c0.889,0,1.441,0.24,2.137,0.84 c1.031,0.888,0.984,1.872,1.031,3.121l0.24,7.249c0.025,0.816-0.096,1.728-1.127,1.728c-0.938,0-1.129-0.792-1.152-1.56 l-0.24-7.104c-0.049-1.417-0.168-1.968-1.561-1.968h-0.768c-0.24,0-0.48,0.072-0.721,0.216L276.899,44.962z" style="fill: rgb(197, 197, 197);"/>
    <path d="M291.874,44.603c0-1.08,0.313-2.041,0.793-2.424l1.68-1.32c0.48-0.384,0.84-0.552,1.439-0.552h2.232 c0.625,0,1.369,0.456,2.258,1.152l0.574,0.456V41.65c0-0.72,0.385-1.344,1.178-1.344c1.008,0,1.127,0.84,1.127,1.608v11.257 c0,2.088-0.168,2.52-1.127,3.336l-0.77,0.648c-1.008,0.84-1.584,0.984-2.879,0.984h-3.816c-0.672,0-1.584-0.144-1.584-1.152 c0-0.984,0.816-1.152,1.584-1.152h4.225c0.479,0,0.791-0.216,1.152-0.528l0.574-0.528c0.193-0.192,0.336-0.528,0.336-0.96v-3.168 l-0.479,0.48c-0.529,0.528-1.248,1.128-1.896,1.128h-2.713c-0.48,0-1.031-0.072-1.729-0.696l-1.439-1.296 c-0.672-0.624-0.721-1.224-0.721-2.16V44.603z M294.179,47.771c0,0.48,0.023,0.984,0.289,1.2l0.959,0.768 c0.168,0.144,0.385,0.216,0.672,0.216h1.68c0.289,0,0.625-0.24,1.057-0.6l1.777-1.464c0.168-0.144,0.238-0.456,0.238-0.768v-1.68 c0-0.312-0.07-0.624-0.238-0.768l-1.777-1.464c-0.432-0.36-0.768-0.6-1.057-0.6h-1.68c-0.287,0-0.504,0.072-0.672,0.216 l-0.959,0.768c-0.266,0.216-0.289,0.72-0.289,1.2V47.771z" style="fill: rgb(197, 197, 197);"/>
  </g>
  <g transform="matrix(1, 0, 0, 1, 117.63406, 244.008918)">
    <path d="M140.353,61.855v0.432c0,0.384-0.168,0.6-0.6,0.6s-0.6-0.216-0.6-0.6v-1.631h5.926v1.631c0,0.384-0.168,0.6-0.6,0.6 s-0.6-0.216-0.6-0.6v-0.432h-1.164v7.532c0,0.384-0.168,0.6-0.6,0.6s-0.6-0.216-0.6-0.6v-7.532H140.353z" style="fill: rgb(197, 197, 197);"/>
    <path d="M147.937,65.669c0-0.768,0.156-1.032,0.732-1.5c0.564-0.468,0.828-0.647,1.631-0.647h0.912c0.803,0,1.066,0.18,1.631,0.647 c0.576,0.468,0.73,0.732,0.73,1.5v2.17c0,0.756-0.191,1.043-0.791,1.547s-0.84,0.6-1.57,0.6H150.3c-0.732,0-0.971-0.096-1.57-0.6 s-0.793-0.792-0.793-1.547V65.669z M149.089,67.839c0,0.24,0.084,0.396,0.42,0.684c0.252,0.216,0.432,0.312,0.791,0.312h0.912 c0.359,0,0.539-0.096,0.791-0.312c0.336-0.288,0.42-0.443,0.42-0.684v-2.17c0-0.24-0.084-0.396-0.42-0.684 c-0.252-0.216-0.432-0.312-0.791-0.312H150.3c-0.359,0-0.539,0.096-0.791,0.312c-0.336,0.288-0.42,0.444-0.42,0.684V67.839z" style="fill: rgb(197, 197, 197);"/>
    <path d="M157.728,64.361l0.205-0.204c0.383-0.384,0.611-0.636,1.139-0.636h1.271c0.299,0,0.564,0.168,0.852,0.408l0.396,0.336 c0.455,0.396,0.623,0.719,0.623,1.331v2.315c0,0.611-0.168,0.936-0.623,1.331l-0.396,0.336c-0.275,0.228-0.611,0.408-0.9,0.408 h-1.188c-0.467,0-0.791-0.288-1.115-0.588l-0.264-0.251v0.072c0,0.372-0.119,0.768-0.574,0.768c-0.492,0-0.576-0.408-0.576-0.804 v-7.244c0-0.396,0.084-0.792,0.576-0.792c0.49,0,0.574,0.396,0.574,0.792V64.361z M157.728,67.216c0,0.372,0.049,0.516,0.348,0.768 l0.66,0.563c0.145,0.12,0.324,0.288,0.443,0.288h0.877c0.168,0,0.275-0.036,0.359-0.108l0.504-0.42 c0.131-0.108,0.143-0.384,0.143-0.611v-2.039c0-0.228-0.059-0.408-0.154-0.48l-0.529-0.408c-0.07-0.06-0.154-0.096-0.275-0.096 H159.3c-0.156,0-0.348,0.084-0.48,0.204l-0.744,0.648c-0.191,0.156-0.348,0.335-0.348,0.684V67.216z" style="fill: rgb(197, 197, 197);"/>
    <path d="M168.636,68.835h0.863c0.385,0,0.791,0.084,0.791,0.576c0,0.504-0.455,0.576-0.791,0.576h-2.926 c-0.336,0-0.793-0.072-0.793-0.576c0-0.492,0.408-0.576,0.793-0.576h0.91v-4.162h-0.91c-0.336,0-0.793-0.072-0.793-0.576 c0-0.492,0.408-0.576,0.793-0.576h1.211c0.66,0,0.852,0.12,0.852,0.803V68.835z M166.897,61.195c0-0.408,0.227-0.54,0.539-0.54 h0.66c0.311,0,0.539,0.132,0.539,0.54v0.552c0,0.408-0.229,0.54-0.539,0.54h-0.66c-0.313,0-0.539-0.132-0.539-0.54V61.195z" style="fill: rgb(197, 197, 197);"/>
    <path d="M175.788,64.673c-0.336,0-0.791-0.072-0.791-0.576c0-0.492,0.406-0.576,0.791-0.576h1.584c0.6,0,1.031,0.06,1.486,0.516 c0.443,0.444,0.504,0.792,0.516,1.367l0.119,3.91c0.014,0.336-0.154,0.672-0.539,0.672c-0.299,0-0.6-0.252-0.588-0.576 l-0.791,0.408c-0.324,0.168-0.336,0.168-0.707,0.168h-1.104c-0.516,0-0.889-0.06-1.309-0.408c-0.479-0.396-0.6-0.815-0.6-1.416 V67.66c0-0.552,0.133-0.899,0.564-1.283c0.396-0.348,0.84-0.432,1.344-0.432h2.471v-0.264c0-0.863-0.193-1.007-1.02-1.007H175.788z M175.776,67.096c-0.313,0-0.768,0.084-0.768,0.504v0.768c0,0.384,0.467,0.468,0.744,0.468h1.27l1.271-0.66v-0.252 c0-0.636-0.18-0.828-0.814-0.828H175.776z" style="fill: rgb(197, 197, 197);"/>
    <path d="M184.464,64.673c-0.24,0-0.648-0.048-0.648,0.324c0,0.192,0.145,0.264,0.313,0.336l2.879,1.307 c0.742,0.336,1.127,0.804,1.127,1.631c0,1.163-0.791,1.715-1.895,1.715h-1.775c-0.6,0-1.008-0.024-1.439-0.36 c-0.217-0.168-0.527-0.384-0.527-0.671c0-0.324,0.275-0.576,0.6-0.576c0.18,0,0.313,0.06,0.443,0.204 c0.203,0.228,0.564,0.252,0.924,0.252h1.559c0.408,0,0.959,0.036,0.959-0.636c0-0.276-0.336-0.456-0.6-0.576l-2.709-1.235 c-0.637-0.288-1.008-0.66-1.008-1.403c0-0.911,0.719-1.463,1.582-1.463h1.967c0.637,0,0.9,0.036,1.332,0.396 c0.217,0.18,0.455,0.324,0.455,0.648s-0.275,0.576-0.588,0.576c-0.215,0-0.348-0.084-0.49-0.24 c-0.193-0.204-0.396-0.228-0.709-0.228H184.464z" style="fill: rgb(197, 197, 197);"/>
    <path d="M193.522,68.451c-0.264,0-0.455,0-0.623-0.228c-0.133-0.18-0.133-0.312-0.133-0.54v-0.672c0-0.228,0-0.359,0.133-0.54 c0.168-0.228,0.359-0.228,0.623-0.228h0.863c0.266,0,0.457,0,0.625,0.228c0.131,0.18,0.131,0.312,0.131,0.54v0.672 c0,0.228,0,0.36-0.131,0.54c-0.168,0.228-0.359,0.228-0.625,0.228H193.522z" style="fill: rgb(197, 197, 197);"/>
    <path d="M204.958,67.947c0,0.456,0,0.744-0.229,1.151c-0.408,0.684-1.008,0.888-1.752,0.888h-0.695 c-0.672,0-1.246-0.12-1.678-0.696c-0.301-0.396-0.373-0.731-0.373-1.211V66.34c0-0.384,0.168-0.6,0.6-0.6s0.6,0.216,0.6,0.6v1.559 c0,0.696,0.145,0.888,0.852,0.888h0.66c0.504,0,0.816-0.072,0.816-0.648v-6.884c0-0.384,0.166-0.6,0.6-0.6 c0.432,0,0.6,0.216,0.6,0.6V67.947z" style="fill: rgb(197, 197, 197);"/>
    <path d="M214.054,69.135c0,0.264,0.047,0.852-0.564,0.852c-0.49,0-0.574-0.408-0.574-0.804v-0.192l-0.936,0.612 c-0.373,0.24-0.684,0.384-0.996,0.384h-0.852c-0.324,0-0.684-0.096-1.068-0.42c-0.516-0.443-0.502-0.936-0.527-1.559l-0.119-3.622 c-0.012-0.419,0.047-0.863,0.576-0.863c0.49,0,0.551,0.419,0.563,0.792l0.121,3.538c0.012,0.264,0.023,0.576,0.119,0.744 s0.396,0.24,0.672,0.24h0.383c0.133,0,0.252-0.036,0.361-0.108l1.689-1.067v-3.346c0-0.396,0.084-0.792,0.576-0.792 s0.576,0.396,0.576,0.792V69.135z" style="fill: rgb(197, 197, 197);"/>
    <path d="M218.208,65.849v3.346c0,0.396-0.084,0.792-0.576,0.792s-0.576-0.396-0.576-0.792v-4.821c0-0.42,0.049-0.852,0.576-0.852 c0.516,0,0.576,0.432,0.576,0.839v0.132v0.024l0.936-0.612c0.299-0.192,0.623-0.384,0.994-0.384h0.852 c0.445,0,0.721,0.12,1.068,0.419c0.516,0.444,0.492,0.936,0.516,1.56l0.119,3.622c0.014,0.408-0.047,0.863-0.563,0.863 c-0.469,0-0.564-0.396-0.576-0.78l-0.119-3.55c-0.025-0.708-0.084-0.983-0.779-0.983h-0.385c-0.119,0-0.24,0.036-0.359,0.108 L218.208,65.849z" style="fill: rgb(197, 197, 197);"/>
    <path d="M225.696,65.669c0-0.54,0.156-1.02,0.395-1.211l0.84-0.66c0.24-0.192,0.42-0.276,0.721-0.276h1.115 c0.311,0,0.684,0.228,1.127,0.576l0.287,0.228v-0.132c0-0.36,0.193-0.671,0.588-0.671c0.504,0,0.564,0.419,0.564,0.803v5.625 c0,1.043-0.084,1.259-0.564,1.667l-0.383,0.324c-0.504,0.419-0.791,0.492-1.439,0.492h-1.906c-0.336,0-0.793-0.072-0.793-0.576 c0-0.492,0.408-0.576,0.793-0.576h2.109c0.24,0,0.396-0.108,0.576-0.264l0.287-0.264c0.098-0.096,0.168-0.264,0.168-0.479v-1.583 l-0.238,0.24c-0.264,0.264-0.625,0.564-0.949,0.564h-1.354c-0.24,0-0.516-0.036-0.865-0.348l-0.719-0.648 c-0.336-0.312-0.359-0.611-0.359-1.079V65.669z M226.847,67.252c0,0.24,0.012,0.492,0.145,0.6l0.48,0.384 c0.084,0.072,0.191,0.108,0.336,0.108h0.838c0.145,0,0.313-0.12,0.529-0.3l0.887-0.731c0.084-0.072,0.119-0.228,0.119-0.384v-0.84 c0-0.156-0.035-0.312-0.119-0.384l-0.887-0.731c-0.217-0.18-0.385-0.3-0.529-0.3h-0.838c-0.145,0-0.252,0.036-0.336,0.108 l-0.48,0.384c-0.133,0.108-0.145,0.36-0.145,0.6V67.252z" style="fill: rgb(197, 197, 197);"/>
    <path d="M235.487,64.361l0.203-0.204c0.385-0.384,0.611-0.636,1.141-0.636h1.27c0.301,0,0.564,0.168,0.852,0.408l0.396,0.336 c0.455,0.396,0.623,0.719,0.623,1.331v2.315c0,0.611-0.168,0.936-0.623,1.331l-0.396,0.336c-0.275,0.228-0.611,0.408-0.898,0.408 h-1.188c-0.467,0-0.791-0.288-1.115-0.588l-0.264-0.251v0.072c0,0.372-0.121,0.768-0.576,0.768c-0.492,0-0.576-0.408-0.576-0.804 v-7.244c0-0.396,0.084-0.792,0.576-0.792s0.576,0.396,0.576,0.792V64.361z M235.487,67.216c0,0.372,0.047,0.516,0.348,0.768 l0.66,0.563c0.143,0.12,0.322,0.288,0.443,0.288h0.875c0.168,0,0.275-0.036,0.359-0.108l0.504-0.42 c0.133-0.108,0.145-0.384,0.145-0.611v-2.039c0-0.228-0.061-0.408-0.156-0.48l-0.527-0.408c-0.072-0.06-0.156-0.096-0.275-0.096 h-0.805c-0.156,0-0.348,0.084-0.479,0.204l-0.744,0.648c-0.191,0.156-0.348,0.335-0.348,0.684V67.216z" style="fill: rgb(197, 197, 197);"/>
    <path d="M244.905,64.673c-0.334,0-0.791-0.072-0.791-0.576c0-0.492,0.408-0.576,0.791-0.576h1.584c0.6,0,1.031,0.06,1.486,0.516 c0.445,0.444,0.504,0.792,0.518,1.367l0.119,3.91c0.012,0.336-0.156,0.672-0.539,0.672c-0.301,0-0.6-0.252-0.588-0.576 l-0.793,0.408c-0.322,0.168-0.336,0.168-0.707,0.168h-1.104c-0.516,0-0.887-0.06-1.307-0.408c-0.48-0.396-0.6-0.815-0.6-1.416 V67.66c0-0.552,0.131-0.899,0.563-1.283c0.396-0.348,0.84-0.432,1.344-0.432h2.471v-0.264c0-0.863-0.191-1.007-1.02-1.007H244.905z M244.894,67.096c-0.311,0-0.768,0.084-0.768,0.504v0.768c0,0.384,0.469,0.468,0.744,0.468h1.271l1.271-0.66v-0.252 c0-0.636-0.18-0.828-0.816-0.828H244.894z" style="fill: rgb(197, 197, 197);"/>
    <path d="M257.251,69.135c0,0.264,0.049,0.852-0.563,0.852c-0.492,0-0.576-0.408-0.576-0.804v-0.192l-0.936,0.612 c-0.371,0.24-0.684,0.384-0.996,0.384h-0.852c-0.322,0-0.684-0.096-1.066-0.42c-0.516-0.443-0.504-0.936-0.527-1.559l-0.121-3.622 c-0.012-0.419,0.049-0.863,0.576-0.863c0.492,0,0.553,0.419,0.564,0.792l0.119,3.538c0.012,0.264,0.023,0.576,0.119,0.744 c0.098,0.168,0.396,0.24,0.672,0.24h0.385c0.131,0,0.252-0.036,0.359-0.108l1.691-1.067v-3.346c0-0.396,0.084-0.792,0.576-0.792 c0.49,0,0.574,0.396,0.574,0.792V69.135z" style="fill: rgb(197, 197, 197);"/>
    <path d="M262.366,69.986c-0.48,0-0.672,0-1.031-0.312l-0.492-0.432c-0.455-0.408-0.588-0.671-0.588-1.295v-2.219 c0-0.611,0.084-0.971,0.564-1.379l0.408-0.348c0.539-0.468,0.803-0.479,1.271-0.479h1.055c0.564,0,0.828,0.06,1.271,0.419 l0.467,0.372c0.529,0.42,0.6,0.863,0.6,1.499v0.924c0,0.659-0.107,0.852-0.791,0.852h-3.693v0.384c0,0.108,0.084,0.251,0.168,0.335 l0.287,0.312c0.156,0.168,0.385,0.216,0.768,0.216h2.471c0.385,0,0.791,0.084,0.791,0.576c0,0.504-0.455,0.576-0.791,0.576H262.366 z M261.407,66.437h3.334v-0.696c0-0.216,0.012-0.396-0.145-0.54l-0.443-0.384c-0.145-0.132-0.371-0.144-0.551-0.144h-0.973 c-0.215,0-0.395,0-0.588,0.132l-0.395,0.288c-0.145,0.108-0.24,0.192-0.24,0.528V66.437z" style="fill: rgb(197, 197, 197);"/>
    <path d="M268.896,64.374c0-0.42,0.047-0.852,0.576-0.852c0.455,0,0.574,0.384,0.574,0.768v0.468l0.9-0.744 c0.324-0.264,0.66-0.492,1.02-0.492h0.924c0.443,0,0.814,0.144,1.127,0.456c0.383,0.384,0.516,0.78,0.516,1.308 c0,0.396-0.072,0.803-0.564,0.803c-0.42,0-0.588-0.336-0.588-0.708c0-0.192,0-0.336-0.119-0.504 c-0.145-0.204-0.42-0.204-0.695-0.204h-0.336c-0.217,0-0.371,0.108-0.576,0.276l-1.607,1.331v2.915 c0,0.396-0.084,0.792-0.574,0.792c-0.492,0-0.576-0.396-0.576-0.792V64.374z" style="fill: rgb(197, 197, 197);"/>
  </g>
</svg>
